# WaveFront *.obj file (generated by Cinema 4D)

v 0.000000 0.525731 0.850651
v 0.000000 -0.525731 0.850651
v 0.850651 0.000000 0.525731
v 0.850651 0.000000 -0.525731
v 0.000000 0.525731 -0.850651
v 0.000000 -0.525731 -0.850651
v -0.850651 0.000000 -0.525731
v -0.850651 0.000000 0.525731
v 0.525731 0.850651 0.000000
v -0.525731 0.850651 0.000000
v -0.525731 -0.850651 0.000000
v 0.525731 -0.850651 0.000000
v 0.201774 0.979432 0.000000
v -0.201774 0.979432 0.000000
v 0.201774 0.730026 0.652955
v 0.403548 0.854729 0.326477
v -0.201774 0.730026 0.652955
v -0.403548 0.854729 0.326477
v 0.854729 0.326477 0.403548
v 0.730026 0.652955 0.201774
v 0.326477 0.403548 0.854729
v 0.652955 0.201774 0.730026
v 0.854729 0.326477 -0.403548
v 0.730026 0.652955 -0.201774
v 0.979432 0.000000 0.201774
v 0.979432 0.000000 -0.201774
v 0.201774 0.730026 -0.652955
v 0.403548 0.854729 -0.326477
v 0.652955 0.201774 -0.730026
v 0.326477 0.403548 -0.854729
v -0.201774 0.730026 -0.652955
v -0.403548 0.854729 -0.326477
v -0.854729 0.326477 -0.403548
v -0.730026 0.652955 -0.201774
v -0.326477 0.403548 -0.854729
v -0.652955 0.201774 -0.730026
v -0.854729 0.326477 0.403548
v -0.730026 0.652955 0.201774
v -0.979432 0.000000 -0.201774
v -0.979432 0.000000 0.201774
v -0.326477 0.403548 0.854729
v -0.652955 0.201774 0.730026
v -0.201774 -0.979432 0.000000
v 0.201774 -0.979432 0.000000
v -0.201774 -0.730026 0.652955
v -0.403548 -0.854729 0.326477
v 0.201774 -0.730026 0.652955
v 0.403548 -0.854729 0.326477
v 0.854729 -0.326477 0.403548
v 0.730026 -0.652955 0.201774
v 0.326477 -0.403548 0.854729
v 0.652955 -0.201774 0.730026
v 0.854729 -0.326477 -0.403548
v 0.730026 -0.652955 -0.201774
v 0.652955 -0.201774 -0.730026
v 0.326477 -0.403548 -0.854729
v 0.201774 -0.730026 -0.652955
v 0.403548 -0.854729 -0.326477
v -0.201774 -0.730026 -0.652955
v -0.403548 -0.854729 -0.326477
v -0.326477 -0.403548 -0.854729
v -0.652955 -0.201774 -0.730026
v -0.854729 -0.326477 -0.403548
v -0.730026 -0.652955 -0.201774
v -0.854729 -0.326477 0.403548
v -0.730026 -0.652955 0.201774
v -0.326477 -0.403548 0.854729
v -0.652955 -0.201774 0.730026
v 0.000000 0.201774 0.979432
v 0.000000 -0.201774 0.979432
v 0.000000 0.201774 -0.979432
v 0.000000 -0.201774 -0.979432
v -0.000000 0.934172 0.356822
v 0.577350 0.577350 0.577350
v 0.934172 0.356822 0.000000
v 0.577350 0.577350 -0.577350
v 0.000000 0.934172 -0.356822
v -0.577350 0.577350 -0.577350
v -0.934172 0.356822 -0.000000
v -0.577350 0.577350 0.577350
v 0.000000 -0.934172 0.356822
v 0.577350 -0.577350 0.577350
v 0.934172 -0.356822 0.000000
v 0.577350 -0.577350 -0.577350
v 0.000000 -0.934172 -0.356822
v -0.577350 -0.577350 -0.577350
v -0.934172 -0.356822 -0.000000
v -0.577350 -0.577350 0.577350
v -0.356822 -0.000000 0.934172
v 0.356822 0.000000 0.934172
v 0.356822 0.000000 -0.934172
v -0.356822 0.000000 -0.934172
# 92 vertices

o Sphere
f 18 14 10
f 73 13 14
f 14 18 73
f 17 73 18
f 16 9 13
f 13 73 16
f 15 16 73
f 73 17 15
f 1 15 17
f 16 20 9
f 74 19 20
f 20 16 74
f 15 74 16
f 22 3 19
f 19 74 22
f 21 22 74
f 74 15 21
f 1 21 15
f 20 24 9
f 75 23 24
f 24 20 75
f 19 75 20
f 26 4 23
f 23 75 26
f 25 26 75
f 75 19 25
f 3 25 19
f 24 28 9
f 76 27 28
f 28 24 76
f 23 76 24
f 30 5 27
f 27 76 30
f 29 30 76
f 76 23 29
f 4 29 23
f 28 13 9
f 77 14 13
f 13 28 77
f 27 77 28
f 32 10 14
f 14 77 32
f 31 32 77
f 77 27 31
f 5 31 27
f 35 31 5
f 78 32 31
f 31 35 78
f 36 78 35
f 34 10 32
f 32 78 34
f 33 34 78
f 78 36 33
f 7 33 36
f 39 33 7
f 79 34 33
f 33 39 79
f 40 79 39
f 38 10 34
f 34 79 38
f 37 38 79
f 79 40 37
f 8 37 40
f 38 18 10
f 80 17 18
f 18 38 80
f 37 80 38
f 41 1 17
f 17 80 41
f 42 41 80
f 80 37 42
f 8 42 37
f 48 44 12
f 81 43 44
f 44 48 81
f 47 81 48
f 46 11 43
f 43 81 46
f 45 46 81
f 81 47 45
f 2 45 47
f 52 49 3
f 82 50 49
f 49 52 82
f 51 82 52
f 48 12 50
f 50 82 48
f 47 48 82
f 82 51 47
f 2 47 51
f 49 25 3
f 83 26 25
f 25 49 83
f 50 83 49
f 53 4 26
f 26 83 53
f 54 53 83
f 83 50 54
f 12 54 50
f 53 55 4
f 84 56 55
f 55 53 84
f 54 84 53
f 57 6 56
f 56 84 57
f 58 57 84
f 84 54 58
f 12 58 54
f 57 59 6
f 85 60 59
f 59 57 85
f 58 85 57
f 43 11 60
f 60 85 43
f 44 43 85
f 85 58 44
f 12 44 58
f 59 61 6
f 86 62 61
f 61 59 86
f 60 86 59
f 63 7 62
f 62 86 63
f 64 63 86
f 86 60 64
f 11 64 60
f 63 39 7
f 87 40 39
f 39 63 87
f 64 87 63
f 65 8 40
f 40 87 65
f 66 65 87
f 87 64 66
f 11 66 64
f 65 68 8
f 88 67 68
f 68 65 88
f 66 88 65
f 45 2 67
f 67 88 45
f 46 45 88
f 88 66 46
f 11 46 66
f 70 67 2
f 89 68 67
f 67 70 89
f 69 89 70
f 42 8 68
f 68 89 42
f 41 42 89
f 89 69 41
f 1 41 69
f 22 52 3
f 90 51 52
f 52 22 90
f 21 90 22
f 70 2 51
f 51 90 70
f 69 70 90
f 90 21 69
f 1 69 21
f 30 71 5
f 91 72 71
f 71 30 91
f 29 91 30
f 56 6 72
f 72 91 56
f 55 56 91
f 91 29 55
f 4 55 29
f 71 35 5
f 92 36 35
f 35 71 92
f 72 92 71
f 62 7 36
f 36 92 62
f 61 62 92
f 92 72 61
f 6 61 72

